{
    "asset" : {
        "generator" : "Khronos glTF Blender I/O v1.7.33",
        "version" : "2.0"
    },
    "scene" : 0,
    "scenes" : [
        {
            "name" : "Scene",
            "nodes" : [
                0
            ]
        }
    ],
    "nodes" : [
        {
            "mesh" : 0,
            "name" : "Sphere",
            "rotation" : [
                0.3420201539993286,
                0,
                0,
                0.9396927356719971
            ]
        }
    ],
    "animations" : [
        {
            "channels" : [
                {
                    "sampler" : 0,
                    "target" : {
                        "node" : 0,
                        "path" : "rotation"
                    }
                }
            ],
            "name" : "SphereAction",
            "samplers" : [
                {
                    "input" : 8,
                    "interpolation" : "LINEAR",
                    "output" : 9
                }
            ]
        }
    ],
    "materials" : [
        {
            "doubleSided" : true,
            "name" : "Material.001",
            "pbrMetallicRoughness" : {
                "baseColorFactor" : [
                    1.0000001192092896,
                    0.8148468732833862,
                    0.1384316384792328,
                    1
                ],
                "metallicFactor" : 0,
                "roughnessFactor" : 0
            }
        },
        {
            "doubleSided" : true,
            "name" : "Material.003",
            "pbrMetallicRoughness" : {
                "baseColorFactor" : [
                    0.004024718422442675,
                    0.014443842694163322,
                    0.010329823940992355,
                    1
                ],
                "metallicFactor" : 0,
                "roughnessFactor" : 0.5
            }
        }
    ],
    "meshes" : [
        {
            "name" : "Sphere",
            "primitives" : [
                {
                    "attributes" : {
                        "POSITION" : 0,
                        "NORMAL" : 1,
                        "TEXCOORD_0" : 2
                    },
                    "indices" : 3,
                    "material" : 0
                },
                {
                    "attributes" : {
                        "POSITION" : 4,
                        "NORMAL" : 5,
                        "TEXCOORD_0" : 6
                    },
                    "indices" : 7,
                    "material" : 1
                }
            ]
        }
    ],
    "accessors" : [
        {
            "bufferView" : 0,
            "componentType" : 5126,
            "count" : 16384,
            "max" : [
                0.9872310161590576,
                0.9975767135620117,
                0.9872307181358337
            ],
            "min" : [
                -0.9872304201126099,
                -0.004150543361902237,
                -0.9872304201126099
            ],
            "type" : "VEC3"
        },
        {
            "bufferView" : 1,
            "componentType" : 5126,
            "count" : 16384,
            "type" : "VEC3"
        },
        {
            "bufferView" : 2,
            "componentType" : 5126,
            "count" : 16384,
            "type" : "VEC2"
        },
        {
            "bufferView" : 3,
            "componentType" : 5123,
            "count" : 24576,
            "type" : "SCALAR"
        },
        {
            "bufferView" : 4,
            "componentType" : 5126,
            "count" : 15872,
            "max" : [
                0.8172829151153564,
                0.8275766968727112,
                0.8172826170921326
            ],
            "min" : [
                -0.8172823190689087,
                -0.004150543361902237,
                -0.8172823190689087
            ],
            "type" : "VEC3"
        },
        {
            "bufferView" : 5,
            "componentType" : 5126,
            "count" : 15872,
            "type" : "VEC3"
        },
        {
            "bufferView" : 6,
            "componentType" : 5126,
            "count" : 15872,
            "type" : "VEC2"
        },
        {
            "bufferView" : 7,
            "componentType" : 5123,
            "count" : 23808,
            "type" : "SCALAR"
        },
        {
            "bufferView" : 8,
            "componentType" : 5126,
            "count" : 41,
            "max" : [
                1.6666666666666667
            ],
            "min" : [
                0
            ],
            "type" : "SCALAR"
        },
        {
            "bufferView" : 9,
            "componentType" : 5126,
            "count" : 41,
            "type" : "VEC4"
        }
    ],
    "bufferViews" : [
        {
            "buffer" : 0,
            "byteLength" : 196608,
            "byteOffset" : 0
        },
        {
            "buffer" : 0,
            "byteLength" : 196608,
            "byteOffset" : 196608
        },
        {
            "buffer" : 0,
            "byteLength" : 131072,
            "byteOffset" : 393216
        },
        {
            "buffer" : 0,
            "byteLength" : 49152,
            "byteOffset" : 524288
        },
        {
            "buffer" : 0,
            "byteLength" : 190464,
            "byteOffset" : 573440
        },
        {
            "buffer" : 0,
            "byteLength" : 190464,
            "byteOffset" : 763904
        },
        {
            "buffer" : 0,
            "byteLength" : 126976,
            "byteOffset" : 954368
        },
        {
            "buffer" : 0,
            "byteLength" : 47616,
            "byteOffset" : 1081344
        },
        {
            "buffer" : 0,
            "byteLength" : 164,
            "byteOffset" : 1128960
        },
        {
            "buffer" : 0,
            "byteLength" : 656,
            "byteOffset" : 1129124
        }
    ],
    "buffers" : [
        {
            "byteLength" : 1129780,
            "uri" : "data:application/octet-stream;base64,"
        }
    ]
}
