{
    "asset" : {
        "generator" : "Khronos glTF Blender I/O v1.7.33",
        "version" : "2.0"
    },
    "scene" : 0,
    "scenes" : [
        {
            "name" : "Scene",
            "nodes" : [
                0
            ]
        }
    ],
    "nodes" : [
        {
            "mesh" : 0,
            "name" : "Sphere",
            "rotation" : [
                0.3420201539993286,
                0,
                0,
                0.9396927356719971
            ]
        }
    ],
    "animations" : [
        {
            "channels" : [
                {
                    "sampler" : 0,
                    "target" : {
                        "node" : 0,
                        "path" : "rotation"
                    }
                }
            ],
            "name" : "SphereAction",
            "samplers" : [
                {
                    "input" : 4,
                    "interpolation" : "LINEAR",
                    "output" : 5
                }
            ]
        }
    ],
    "materials" : [
        {
            "doubleSided" : true,
            "name" : "Material.001",
            "pbrMetallicRoughness" : {
                "baseColorFactor" : [
                    1.0000001192092896,
                    0.8148468732833862,
                    0.1384316384792328,
                    1
                ],
                "metallicFactor" : 0,
                "roughnessFactor" : 0
            }
        }
    ],
    "meshes" : [
        {
            "name" : "Sphere",
            "primitives" : [
                {
                    "attributes" : {
                        "POSITION" : 0,
                        "NORMAL" : 1,
                        "TEXCOORD_0" : 2
                    },
                    "indices" : 3,
                    "material" : 0
                }
            ]
        }
    ],
    "accessors" : [
        {
            "bufferView" : 0,
            "componentType" : 5126,
            "count" : 32256,
            "max" : [
                0.9872310161590576,
                0.9975767135620117,
                0.9872307181358337
            ],
            "min" : [
                -0.9872304201126099,
                -0.004150543361902237,
                -0.9872304201126099
            ],
            "type" : "VEC3"
        },
        {
            "bufferView" : 1,
            "componentType" : 5126,
            "count" : 32256,
            "type" : "VEC3"
        },
        {
            "bufferView" : 2,
            "componentType" : 5126,
            "count" : 32256,
            "type" : "VEC2"
        },
        {
            "bufferView" : 3,
            "componentType" : 5123,
            "count" : 48384,
            "type" : "SCALAR"
        },
        {
            "bufferView" : 4,
            "componentType" : 5126,
            "count" : 41,
            "max" : [
                1.6666666666666667
            ],
            "min" : [
                0
            ],
            "type" : "SCALAR"
        },
        {
            "bufferView" : 5,
            "componentType" : 5126,
            "count" : 41,
            "type" : "VEC4"
        }
    ],
    "bufferViews" : [
        {
            "buffer" : 0,
            "byteLength" : 387072,
            "byteOffset" : 0
        },
        {
            "buffer" : 0,
            "byteLength" : 387072,
            "byteOffset" : 387072
        },
        {
            "buffer" : 0,
            "byteLength" : 258048,
            "byteOffset" : 774144
        },
        {
            "buffer" : 0,
            "byteLength" : 96768,
            "byteOffset" : 1032192
        },
        {
            "buffer" : 0,
            "byteLength" : 164,
            "byteOffset" : 1128960
        },
        {
            "buffer" : 0,
            "byteLength" : 656,
            "byteOffset" : 1129124
        }
    ],
    "buffers" : [
        {
            "byteLength" : 1129780,
            "uri" : "data:application/octet-stream;base64,"
        }
    ]
}
