<?xml version="1.0" encoding="utf-8"?>
<!-- Generator: Adobe Illustrator 24.0.1, SVG Export Plug-In . SVG Version: 6.00 Build 0)  -->
<svg version="1.1" id="Layer_1" xmlns="http://www.w3.org/2000/svg" xmlns:xlink="http://www.w3.org/1999/xlink" x="0px" y="0px"
	 viewBox="0 0 560 560" style="enable-background:new 0 0 560 560;" xml:space="preserve">
<style type="text/css">
	.st0{fill:#0D201A;}
</style>
<defs>
	<filter xmlns="http://www.w3.org/2000/svg" id="inner-glow">
    <feFlood flood-color="rgba(82,54,251,.5)"/>
    <feComposite in2="SourceAlpha" operator="out"/>
    <feGaussianBlur result="blur" stdDeviation="20"/>
    <feComposite operator="atop" in2="SourceGraphic"/>
		<feBlend in="SourceGraphic" in2="floodFill" mode="lighten"/>
	</filter>
  </defs>
	<path  filter="url(#inner-glow)" class="st0" d="M189.3,90.7V159c0,16.6-13.4,30-30,30H90.9C40.6,189.1,0,229.9,0,280s40.6,90.7,90.9,90.7h68.4
	c16.6,0,30,13.4,30,30V469c0,50.3,40.6,91,90.7,91s91-40.6,91-91v-68.4c0-16.6,13.4-30,30-30h68.4c50.1,0,91-40.6,91-91
	c0-50.1-40.6-90.9-91-90.9H401c-16.6,0-30-13.4-30-30V90.4c0-50.1-40.6-90.9-91-90.9C229.9,0,189.3,40.6,189.3,90.7z"/>
</svg>
