<?xml version="1.0" encoding="utf-8"?>
<!-- Generator: Adobe Illustrator 24.0.1, SVG Export Plug-In . SVG Version: 6.00 Build 0)  -->
<svg version="1.1"
	 id="svg2" inkscape:version="0.48.2 r9819" sodipodi:docname="A.svg" xmlns:cc="http://creativecommons.org/ns#" xmlns:dc="http://purl.org/dc/elements/1.1/" xmlns:inkscape="http://www.inkscape.org/namespaces/inkscape" xmlns:rdf="http://www.w3.org/1999/02/22-rdf-syntax-ns#" xmlns:sodipodi="http://sodipodi.sourceforge.net/DTD/sodipodi-0.dtd" xmlns:svg="http://www.w3.org/2000/svg"
	 xmlns="http://www.w3.org/2000/svg" xmlns:xlink="http://www.w3.org/1999/xlink" x="0px" y="0px" viewBox="0 0 1000 432.5"
	 style="enable-background:new 0 0 1000 432.5;" xml:space="preserve">
<style type="text/css">
	.st0{fill:#FFFFFF;}
</style>
<sodipodi:namedview  bordercolor="#666666" borderopacity="1.0" fit-margin-bottom="0.5" fit-margin-left="0.5" fit-margin-right="0.5" fit-margin-top="0.5" id="base" inkscape:current-layer="layer1" inkscape:cx="623.42721" inkscape:cy="-186.61207" inkscape:document-units="px" inkscape:pageopacity="0.0" inkscape:pageshadow="2" inkscape:window-height="1041" inkscape:window-maximized="0" inkscape:window-width="1060" inkscape:window-x="853" inkscape:window-y="-21" inkscape:zoom="0.40700072" pagecolor="#ffffff" showgrid="false">
	<inkscape:grid  empspacing="5" enabled="true" id="grid2996" snapvisiblegridlinesonly="true" type="xygrid" visible="true">
		</inkscape:grid>
</sodipodi:namedview>
<g id="layer1" transform="translate(-186.78419,-1561.0133)" inkscape:groupmode="layer" inkscape:label="Layer 1">
	<path id="path3011" inkscape:connector-curvature="0" sodipodi:nodetypes="cccccccc" class="st0" d="M234,1993
		c-25.2,0-46.7-15.8-46.7-51.7c0-55.4,47.6-97.4,69.3-109.3c0,0,30.2,17.4,61.6,28.6c-62.3-39.4-102.2-111.3-102.2-191.1
		c0-74.5,39.3-108.1,74.9-108.1c28.6,0,96.3,31.4,96.3,152.1C387.2,1843.4,319.5,1993,234,1993L234,1993z"/>
	<g id="flowRoot3013" transform="matrix(9.2157808,0,0,9.2157808,-2680.7304,-5001.9425)">
		<path id="path3028" inkscape:connector-curvature="0" class="st0" d="M383.6,749.7h-3.2v-11.5c0-2.2-0.3-3.8-1-4.8
			c-0.7-1-1.8-1.5-3.4-1.5c-1.4,0-2.5,0.6-3.5,1.9c-1,1.3-1.4,2.7-1.4,4.5v11.4h-3.2v-11.9c0-3.9-1.5-5.9-4.6-5.9
			c-1.4,0-2.6,0.6-3.5,1.8c-0.9,1.2-1.4,2.7-1.4,4.6v11.4h-3.2v-20h3.2v3.2h0.1c1.4-2.4,3.5-3.6,6.2-3.6c1.4,0,2.6,0.4,3.6,1.1
			s1.7,1.8,2.1,3c1.5-2.8,3.7-4.1,6.6-4.1c4.4,0,6.6,2.7,6.6,8.1L383.6,749.7z"/>
		<path id="path3032" inkscape:connector-curvature="0" class="st0" d="M419.6,749.7h-3.2v-11.4c0-4.2-1.5-6.4-4.6-6.4
			c-1.6,0-2.9,0.6-4,1.8c-1,1.2-1.6,2.7-1.6,4.6v11.4H403v-20h3.2v3.3h0.1c1.5-2.5,3.7-3.8,6.6-3.8c2.2,0,3.9,0.7,5,2.1
			c1.2,1.4,1.7,3.5,1.7,6.1L419.6,749.7z"/>
		<path id="path3034" inkscape:connector-curvature="0" sodipodi:nodetypes="ccccccccccccc" class="st0" d="M387.1,745.5v3.4
			c0,0,1.7,1.2,5,1.2c5,0,7.2-2.8,7.2-5.9c0-6.6-8.9-5.1-8.9-9.5c0-1.7,1.3-2.9,3.5-2.9c2.6,0,4.5,1.4,4.5,1.4v-3.2c0,0-1.8-1-4.3-1
			c-4.3,0-7,2.7-7,5.9c0,6.6,8.9,5.3,8.9,9.6c0,2-1.6,2.7-3.7,2.7C389.4,747.3,387.1,745.5,387.1,745.5L387.1,745.5z"/>
	</g>
	<path id="path3021" inkscape:connector-curvature="0" sodipodi:nodetypes="cccccccc" class="st0" d="M342.9,1951.9
		c0,18.8,6.6,26.2,16.6,26.2c25.1,0,65.2-58.7,63.7-120.3c38.1-40.2,83.8-103.2,83.8-153.7c0-12.2-3.5-22.5-17.9-22.5
		c-22.1,0-53.8,38.1-73.8,76c-19.3,39.2-37.4,84-61.5,145.4C348.2,1918.5,342.9,1937.1,342.9,1951.9L342.9,1951.9z"/>
</g>
</svg>
