<svg width="319" height="39" viewBox="0 0 319 39" fill="none" xmlns="http://www.w3.org/2000/svg">
<path d="M14.04 18.54C15.84 18.78 17.25 19.39 18.27 20.37C19.31 21.35 19.83 22.56 19.83 24C19.83 25.84 19.01 27.3 17.37 28.38C15.75 29.46 13.45 30 10.47 30H2.1C1.66 30 1.44 29.83 1.44 29.49V29.37C1.44 29.17 1.63 28.86 2.01 28.44C2.39 28.02 2.58 27.58 2.58 27.12V11.58C2.58 11.12 2.39 10.68 2.01 10.26C1.63 9.82 1.44 9.5 1.44 9.3V9.18C1.44 8.86 1.66 8.7 2.1 8.7H9.9C12.42 8.7 14.36 9.2 15.72 10.2C17.08 11.2 17.76 12.49 17.76 14.07C17.76 15.19 17.42 16.15 16.74 16.95C16.08 17.75 15.18 18.28 14.04 18.54ZM7.08 11.88V16.41C7.08 16.85 7.21 17.2 7.47 17.46C7.75 17.72 8.12 17.85 8.58 17.85H10.68C11.62 17.85 12.37 17.56 12.93 16.98C13.51 16.4 13.8 15.66 13.8 14.76C13.8 13.42 13.43 12.38 12.69 11.64C11.97 10.9 10.99 10.53 9.75 10.53H8.34C7.5 10.53 7.08 10.98 7.08 11.88ZM10.98 28.17C12.32 28.17 13.34 27.87 14.04 27.27C14.76 26.65 15.12 25.79 15.12 24.69C15.12 23.37 14.59 22.2 13.53 21.18C12.47 20.14 11.02 19.62 9.18 19.62H7.08V26.01C7.08 26.63 7.26 27.15 7.62 27.57C7.98 27.97 8.45 28.17 9.03 28.17H10.98ZM36.1071 26.94C36.1071 27.48 36.1771 27.89 36.3171 28.17C36.4771 28.43 36.6471 28.58 36.8271 28.62C37.0071 28.64 37.1671 28.7 37.3071 28.8C37.4671 28.9 37.5471 29.07 37.5471 29.31C37.5471 29.89 36.6571 30.18 34.8771 30.18C33.9971 30.18 33.3371 30.04 32.8971 29.76C32.4771 29.46 32.2471 28.95 32.2071 28.23C31.3671 29.61 29.9171 30.3 27.8571 30.3C26.2371 30.3 24.8971 29.76 23.8371 28.68C22.7971 27.58 22.2771 26.04 22.2771 24.06V18.99C22.2771 18.49 22.0771 18.03 21.6771 17.61C21.2971 17.17 21.1071 16.87 21.1071 16.71V16.62C21.1071 16.26 21.3171 16.05 21.7371 15.99L25.5171 15.42C26.3371 15.32 26.7471 15.5 26.7471 15.96L26.6571 24.51C26.6571 27.23 27.4871 28.59 29.1471 28.59C29.8871 28.59 30.4971 28.27 30.9771 27.63C31.4771 26.97 31.7271 26.12 31.7271 25.08V18.99C31.7271 18.49 31.5271 18.03 31.1271 17.61C30.7271 17.17 30.5271 16.87 30.5271 16.71V16.62C30.5271 16.26 30.7271 16.05 31.1271 15.99L34.9671 15.42C35.7271 15.34 36.1071 15.52 36.1071 15.96V26.94ZM48.1659 15.3C49.0259 15.3 49.6959 15.56 50.1759 16.08C50.6759 16.58 50.9259 17.23 50.9259 18.03C50.9259 19.61 50.2859 20.4 49.0059 20.4C48.4859 20.4 48.0759 20.27 47.7759 20.01C47.4959 19.73 47.3259 19.43 47.2659 19.11C47.2059 18.79 47.0859 18.5 46.9059 18.24C46.7259 17.96 46.4559 17.82 46.0959 17.82C45.5559 17.82 45.1559 18.14 44.8959 18.78C44.6359 19.42 44.5059 20.2 44.5059 21.12V27.12C44.5059 27.48 44.6259 27.8 44.8659 28.08C45.1259 28.34 45.3759 28.57 45.6159 28.77C45.8759 28.97 46.0059 29.17 46.0059 29.37V29.49C46.0059 29.83 45.7859 30 45.3459 30H39.7959C39.3359 30 39.1059 29.83 39.1059 29.49V29.37C39.1059 29.17 39.2959 28.86 39.6759 28.44C40.0759 28.02 40.2759 27.58 40.2759 27.12V20.1C40.2759 19.62 40.0459 19.19 39.5859 18.81C39.1259 18.43 38.8959 18.14 38.8959 17.94V17.82C38.8959 17.54 39.1059 17.3 39.5259 17.1L43.1259 15.42C43.7659 15.12 44.0859 15.32 44.0859 16.02V18.27C44.7659 16.29 46.1259 15.3 48.1659 15.3ZM67.4473 27.09C67.4873 27.57 67.6773 28.02 68.0173 28.44C68.3573 28.86 68.5273 29.18 68.5273 29.4V29.52C68.5273 29.86 68.2973 30.03 67.8373 30.03H62.6473C62.1873 30.03 61.9573 29.86 61.9573 29.52V29.4C61.9573 29.2 62.1373 28.89 62.4973 28.47C62.8773 28.05 63.0573 27.59 63.0373 27.09L62.7373 21.54C62.5973 18.52 61.7273 17.01 60.1273 17.01C59.3273 17.01 58.6973 17.31 58.2373 17.91C57.7973 18.51 57.5773 19.31 57.5773 20.31V27.12C57.5773 27.6 57.7873 28.05 58.2073 28.47C58.6473 28.89 58.8673 29.2 58.8673 29.4V29.52C58.8673 29.86 58.6373 30.03 58.1773 30.03H52.5973C52.1373 30.03 51.9073 29.86 51.9073 29.52V29.4C51.9073 29.2 52.1173 28.89 52.5373 28.47C52.9773 28.05 53.1973 27.6 53.1973 27.12V20.13C53.1973 19.83 53.1173 19.56 52.9573 19.32C52.8173 19.08 52.6473 18.91 52.4473 18.81C52.2673 18.69 52.0973 18.55 51.9373 18.39C51.7973 18.23 51.7273 18.07 51.7273 17.91V17.79C51.7273 17.57 51.9273 17.36 52.3273 17.16L55.8973 15.42C56.2373 15.26 56.4873 15.25 56.6473 15.39C56.8273 15.51 56.9173 15.73 56.9173 16.05V17.73C57.7773 16.11 59.2573 15.3 61.3573 15.3C62.8773 15.3 64.1673 15.81 65.2273 16.83C66.3073 17.85 66.9273 19.47 67.0873 21.69L67.4473 27.09ZM77.9641 30.3C75.5841 30.3 73.6141 29.57 72.0541 28.11C70.5141 26.63 69.7441 24.83 69.7441 22.71C69.7441 20.57 70.5041 18.8 72.0241 17.4C73.5441 16 75.3741 15.3 77.5141 15.3C79.8141 15.3 81.7341 16.03 83.2741 17.49C84.8141 18.93 85.5841 20.72 85.5841 22.86C85.5841 25 84.8541 26.78 83.3941 28.2C81.9541 29.6 80.1441 30.3 77.9641 30.3ZM78.5041 28.98C79.3241 28.98 79.9541 28.6 80.3941 27.84C80.8541 27.08 81.0841 26.01 81.0841 24.63C81.0841 23.49 80.9141 22.32 80.5741 21.12C80.2541 19.9 79.7641 18.85 79.1041 17.97C78.4441 17.07 77.7141 16.62 76.9141 16.62C75.0741 16.62 74.1541 18.08 74.1541 21C74.1541 22.08 74.3141 23.22 74.6341 24.42C74.9741 25.62 75.4841 26.68 76.1641 27.6C76.8641 28.52 77.6441 28.98 78.5041 28.98ZM101.966 26.94C101.966 27.48 102.036 27.89 102.176 28.17C102.336 28.43 102.506 28.58 102.686 28.62C102.866 28.64 103.026 28.7 103.166 28.8C103.326 28.9 103.406 29.07 103.406 29.31C103.406 29.89 102.516 30.18 100.736 30.18C99.8565 30.18 99.1965 30.04 98.7565 29.76C98.3365 29.46 98.1065 28.95 98.0665 28.23C97.2265 29.61 95.7765 30.3 93.7165 30.3C92.0965 30.3 90.7565 29.76 89.6965 28.68C88.6565 27.58 88.1365 26.04 88.1365 24.06V18.99C88.1365 18.49 87.9365 18.03 87.5365 17.61C87.1565 17.17 86.9665 16.87 86.9665 16.71V16.62C86.9665 16.26 87.1765 16.05 87.5965 15.99L91.3765 15.42C92.1965 15.32 92.6065 15.5 92.6065 15.96L92.5165 24.51C92.5165 27.23 93.3465 28.59 95.0065 28.59C95.7465 28.59 96.3565 28.27 96.8365 27.63C97.3365 26.97 97.5865 26.12 97.5865 25.08V18.99C97.5865 18.49 97.3865 18.03 96.9865 17.61C96.5865 17.17 96.3865 16.87 96.3865 16.71V16.62C96.3865 16.26 96.5865 16.05 96.9865 15.99L100.826 15.42C101.586 15.34 101.966 15.52 101.966 15.96V26.94ZM110.726 30.3C109.326 30.3 108.216 29.86 107.396 28.98C106.596 28.08 106.196 26.79 106.196 25.11V17.34H104.786C104.386 17.34 104.186 17.14 104.186 16.74V16.23C104.186 15.81 104.386 15.6 104.786 15.6H105.536C106.356 15.6 107.046 15.33 107.606 14.79C108.186 14.25 108.556 13.53 108.716 12.63C108.816 12.15 109.046 11.91 109.406 11.91H110.006C110.446 11.91 110.666 12.15 110.666 12.63L110.696 15.6H114.146C114.306 15.6 114.446 15.66 114.566 15.78C114.686 15.9 114.746 16.05 114.746 16.23V16.74C114.746 16.92 114.686 17.07 114.566 17.19C114.446 17.29 114.306 17.34 114.146 17.34H110.696V25.17C110.696 25.75 110.836 26.22 111.116 26.58C111.416 26.92 111.786 27.09 112.226 27.09C113.266 27.09 113.946 26.64 114.266 25.74C114.446 25.48 114.666 25.38 114.926 25.44C115.206 25.48 115.346 25.64 115.346 25.92C115.346 27.08 114.926 28.1 114.086 28.98C113.266 29.86 112.146 30.3 110.726 30.3ZM116.753 29.49V29.4C116.753 29.2 116.943 28.89 117.323 28.47C117.703 28.05 117.893 27.6 117.893 27.12V11.58C117.893 11.12 117.703 10.68 117.323 10.26C116.943 9.82 116.753 9.5 116.753 9.3V9.18C116.753 8.86 116.973 8.7 117.413 8.7H123.022C123.463 8.7 123.683 8.86 123.683 9.18V9.3C123.683 9.5 123.473 9.82 123.053 10.26C122.633 10.68 122.423 11.12 122.423 11.58V27.12C122.423 27.6 122.633 28.05 123.053 28.47C123.473 28.89 123.683 29.2 123.683 29.4V29.49C123.683 29.83 123.463 30 123.022 30H117.413C116.973 30 116.753 29.83 116.753 29.49ZM141.422 27.09C141.462 27.57 141.652 28.02 141.992 28.44C142.332 28.86 142.502 29.18 142.502 29.4V29.52C142.502 29.86 142.272 30.03 141.812 30.03H136.622C136.162 30.03 135.932 29.86 135.932 29.52V29.4C135.932 29.2 136.112 28.89 136.472 28.47C136.852 28.05 137.032 27.59 137.012 27.09L136.712 21.54C136.572 18.52 135.702 17.01 134.102 17.01C133.302 17.01 132.672 17.31 132.212 17.91C131.772 18.51 131.552 19.31 131.552 20.31V27.12C131.552 27.6 131.762 28.05 132.182 28.47C132.622 28.89 132.842 29.2 132.842 29.4V29.52C132.842 29.86 132.612 30.03 132.152 30.03H126.572C126.112 30.03 125.882 29.86 125.882 29.52V29.4C125.882 29.2 126.092 28.89 126.512 28.47C126.952 28.05 127.172 27.6 127.172 27.12V20.13C127.172 19.83 127.092 19.56 126.932 19.32C126.792 19.08 126.622 18.91 126.422 18.81C126.242 18.69 126.072 18.55 125.912 18.39C125.772 18.23 125.702 18.07 125.702 17.91V17.79C125.702 17.57 125.902 17.36 126.302 17.16L129.872 15.42C130.212 15.26 130.462 15.25 130.622 15.39C130.802 15.51 130.892 15.73 130.892 16.05V17.73C131.752 16.11 133.232 15.3 135.332 15.3C136.852 15.3 138.142 15.81 139.202 16.83C140.282 17.85 140.902 19.47 141.062 21.69L141.422 27.09ZM158.569 27.12C158.569 27.58 158.769 28.03 159.169 28.47C159.569 28.89 159.769 29.2 159.769 29.4V29.49C159.769 29.83 159.569 30 159.169 30H155.449C154.989 30 154.759 29.78 154.759 29.34L154.699 28.68C153.779 29.76 152.479 30.3 150.799 30.3C148.859 30.3 147.199 29.63 145.819 28.29C144.439 26.93 143.749 25.09 143.749 22.77C143.749 20.59 144.439 18.8 145.819 17.4C147.199 16 148.869 15.3 150.829 15.3C152.229 15.3 153.399 15.69 154.339 16.47V11.67C154.339 11.27 154.209 10.94 153.949 10.68C153.709 10.42 153.459 10.2 153.199 10.02C152.959 9.84 152.839 9.65 152.839 9.45V9.36C152.839 9.02 153.049 8.79 153.469 8.67L157.399 7.47C158.179 7.21 158.569 7.41 158.569 8.07V27.12ZM151.789 29.01C152.469 29.01 153.059 28.73 153.559 28.17C154.079 27.59 154.339 26.8 154.339 25.8V20.52C154.339 19.54 154.009 18.64 153.349 17.82C152.689 17 151.929 16.59 151.069 16.59C150.149 16.59 149.419 16.98 148.879 17.76C148.339 18.52 148.059 19.6 148.039 21C147.999 22.14 148.109 23.31 148.369 24.51C148.649 25.71 149.089 26.76 149.689 27.66C150.309 28.54 151.009 28.99 151.789 29.01ZM173.569 25.44C173.749 25.2 173.969 25.12 174.229 25.2C174.489 25.28 174.609 25.47 174.589 25.77C174.489 26.81 173.889 27.83 172.789 28.83C171.689 29.81 170.259 30.3 168.499 30.3C166.379 30.3 164.639 29.6 163.279 28.2C161.919 26.8 161.239 24.96 161.239 22.68C161.239 20.54 161.949 18.78 163.369 17.4C164.789 16 166.499 15.3 168.499 15.3C170.319 15.3 171.719 15.73 172.699 16.59C173.679 17.45 174.169 18.44 174.169 19.56C174.169 20.48 173.729 21.14 172.849 21.54L166.189 24.57C167.009 26.31 168.329 27.18 170.149 27.18C170.909 27.18 171.589 27.02 172.189 26.7C172.809 26.36 173.269 25.94 173.569 25.44ZM167.959 16.62C167.179 16.62 166.559 17 166.099 17.76C165.639 18.5 165.409 19.45 165.409 20.61C165.409 21.59 165.509 22.45 165.709 23.19L169.579 21.24C170.099 20.98 170.359 20.51 170.359 19.83C170.359 19.15 170.139 18.45 169.699 17.73C169.259 16.99 168.679 16.62 167.959 16.62ZM188.884 27.06C189.104 27.32 189.394 27.61 189.754 27.93C190.114 28.25 190.394 28.52 190.594 28.74C190.794 28.94 190.894 29.15 190.894 29.37V29.49C190.894 29.83 190.684 30 190.264 30H184.204C183.824 30 183.634 29.82 183.634 29.46V29.37C183.634 29.21 183.764 29.02 184.024 28.8C184.304 28.56 184.474 28.34 184.534 28.14C184.614 27.94 184.464 27.55 184.084 26.97L181.954 24.36L179.584 27.15C179.304 27.47 179.154 27.75 179.134 27.99C179.114 28.23 179.174 28.41 179.314 28.53C179.454 28.65 179.594 28.79 179.734 28.95C179.894 29.09 179.974 29.23 179.974 29.37V29.46C179.974 29.82 179.774 30 179.374 30H175.294C174.894 30 174.694 29.83 174.694 29.49V29.37C174.694 29.17 174.804 28.98 175.024 28.8C175.244 28.6 175.564 28.34 175.984 28.02C176.424 27.7 176.804 27.37 177.124 27.03L180.844 22.98L177.244 18.57C176.964 18.23 176.674 17.93 176.374 17.67C176.094 17.41 175.864 17.22 175.684 17.1C175.524 16.98 175.384 16.85 175.264 16.71C175.164 16.57 175.114 16.41 175.114 16.23V16.08C175.114 15.76 175.314 15.6 175.714 15.6H181.744C182.144 15.6 182.344 15.77 182.344 16.11V16.23C182.344 16.41 182.254 16.65 182.074 16.95C181.894 17.25 181.774 17.5 181.714 17.7C181.674 17.88 181.784 18.19 182.044 18.63L184.174 21.27L186.544 18.63C186.784 18.37 186.904 18.12 186.904 17.88C186.904 17.62 186.834 17.42 186.694 17.28C186.554 17.12 186.404 16.94 186.244 16.74C186.104 16.54 186.034 16.37 186.034 16.23V16.11C186.034 15.77 186.224 15.6 186.604 15.6H190.054C190.454 15.6 190.654 15.76 190.654 16.08V16.23C190.654 16.45 190.574 16.66 190.414 16.86C190.274 17.04 190.014 17.3 189.634 17.64C189.274 17.98 188.974 18.29 188.734 18.57L185.284 22.62L188.884 27.06Z" fill="white"/>
<path d="M202.597 26.5689H204.217V25.3269C204.865 26.1909 205.891 26.7849 207.061 26.7849C209.311 26.7849 210.931 25.0749 210.931 22.2309C210.931 19.4409 209.329 17.6589 207.061 17.6589C205.927 17.6589 204.901 18.1989 204.217 19.1349V14.5629H202.597V26.5689ZM204.217 24.0849V20.3949C204.649 19.6929 205.639 19.0989 206.629 19.0989C208.249 19.0989 209.257 20.4129 209.257 22.2309C209.257 24.0489 208.249 25.3449 206.629 25.3449C205.639 25.3449 204.649 24.7869 204.217 24.0849ZM212.823 28.5129L212.571 29.9709C212.823 30.0429 213.309 30.0969 213.579 30.0969C214.839 30.0789 215.793 29.5929 216.351 28.2249L220.635 17.8749H218.889L216.171 24.6969L213.453 17.8749H211.725L215.307 26.6589L214.803 27.8109C214.533 28.4589 214.137 28.6569 213.543 28.6569C213.327 28.6569 213.021 28.6029 212.823 28.5129Z" fill="#B1B9CF"/>
<path fill-rule="evenodd" clip-rule="evenodd" d="M300.956 22.1179C300.956 26.6537 297.871 30.071 293.79 30.071C291.946 30.071 290.628 29.3961 289.677 28.3825C289.647 28.349 289.607 28.3248 289.564 28.3125C289.521 28.3003 289.475 28.3004 289.432 28.3129C289.389 28.3253 289.35 28.3497 289.319 28.3834C289.289 28.417 289.267 28.4585 289.258 28.5035L289.1 29.2778C289.077 29.3917 289.017 29.494 288.928 29.5674C288.84 29.6409 288.729 29.6811 288.616 29.6812H285.957C285.826 29.6812 285.7 29.6279 285.607 29.5331C285.514 29.4383 285.462 29.3097 285.462 29.1757V8.76859C285.462 8.63453 285.514 8.50597 285.607 8.41117C285.7 8.31638 285.826 8.26312 285.957 8.26312H288.94C289.071 8.26312 289.197 8.31638 289.29 8.41117C289.383 8.50597 289.435 8.63453 289.435 8.76859V15.5037C289.435 15.553 289.449 15.6013 289.476 15.6425C289.502 15.6838 289.54 15.716 289.584 15.7352C289.629 15.7545 289.678 15.7599 289.725 15.7508C289.773 15.7416 289.816 15.7183 289.851 15.6839C290.787 14.7563 292.057 14.1621 293.774 14.1621C297.871 14.1621 300.956 17.5794 300.956 22.1179ZM289.238 22.1179C289.238 24.5027 290.778 26.28 293.041 26.28C295.394 26.28 296.862 24.4248 296.862 22.1179C296.862 19.811 295.394 17.9531 293.041 17.9531C290.778 17.9531 289.238 19.7303 289.238 22.1179ZM283.06 14.8289L282.588 18.0392C282.58 18.0967 282.559 18.1516 282.528 18.2002C282.497 18.2488 282.456 18.2899 282.407 18.3206C282.359 18.3513 282.304 18.3709 282.248 18.378C282.191 18.3851 282.134 18.3796 282.08 18.3618C281.439 18.1586 280.772 18.0526 280.101 18.0472C278.257 18.0472 276.982 19.2006 276.982 21.4457V29.1757C276.982 29.3093 276.93 29.4374 276.838 29.5322C276.745 29.6269 276.62 29.6804 276.489 29.6812H273.488C273.358 29.6804 273.232 29.6269 273.14 29.5322C273.048 29.4374 272.996 29.3093 272.996 29.1757V15.0735C272.998 14.9414 273.051 14.8153 273.143 14.7223C273.235 14.6293 273.359 14.5768 273.488 14.5761H276.123C276.236 14.5768 276.346 14.6173 276.434 14.6907C276.522 14.7641 276.582 14.866 276.605 14.9794L276.753 15.6866C276.762 15.7326 276.783 15.7751 276.815 15.8092C276.846 15.8433 276.887 15.8677 276.931 15.8794C276.976 15.8912 277.023 15.89 277.067 15.8758C277.111 15.8617 277.15 15.8352 277.179 15.7995C278.104 14.681 279.411 14.1701 281.034 14.1701C281.622 14.1623 282.209 14.2364 282.778 14.3906C282.869 14.4164 282.948 14.4751 282.999 14.5557C283.051 14.6363 283.073 14.7333 283.06 14.8289ZM310.978 30.071C315.591 30.071 319 26.6698 319 22.1179C319 17.5633 315.578 14.1621 310.978 14.1621C306.378 14.1621 302.985 17.5605 302.985 22.1179C302.985 26.6752 306.365 30.071 310.978 30.071ZM310.978 26.2799C308.731 26.2799 307.05 24.5646 307.05 22.1179C307.05 19.6685 308.723 17.9531 310.978 17.9531C313.233 17.9531 314.93 19.6712 314.93 22.1179C314.93 24.5646 313.225 26.2799 310.978 26.2799ZM269.494 23.8979C269.782 23.8193 270.038 23.6508 270.227 23.416C270.416 23.1811 270.528 22.8918 270.548 22.5885C270.597 21.4978 270.426 20.4084 270.047 19.3874C269.668 18.3664 269.088 17.4353 268.343 16.6514C267.599 15.8674 266.705 15.2472 265.717 14.8289C264.728 14.4105 263.667 14.2029 262.597 14.2187C257.826 14.2187 254.741 18.3189 254.741 22.2981C254.741 26.2774 257.781 30.3776 262.658 30.3776C265.89 30.3776 268.04 29.7189 268.735 29.4688C268.808 29.4435 268.87 29.396 268.915 29.333C268.96 29.27 268.984 29.1944 268.986 29.1166L269.02 26.6968C269.021 26.6388 269.009 26.5813 268.985 26.5288C268.961 26.4762 268.926 26.4299 268.881 26.3936C268.837 26.3572 268.785 26.3317 268.73 26.319C268.674 26.3063 268.617 26.3068 268.562 26.3204C266.945 26.717 265.292 26.9316 263.63 26.9603C261.817 26.9603 260.155 26.3823 259.256 25.0782C259.235 25.0472 259.223 25.0106 259.221 24.9726C259.219 24.9346 259.227 24.897 259.246 24.8638C259.264 24.8306 259.291 24.8034 259.323 24.7852C259.356 24.767 259.393 24.7586 259.43 24.761C262.339 24.933 266.441 24.7583 269.494 23.8979ZM258.877 21.5265C258.848 21.5246 258.821 21.5163 258.796 21.5023C258.771 21.4882 258.749 21.4686 258.732 21.4451C258.715 21.4215 258.704 21.3944 258.698 21.3657C258.693 21.337 258.694 21.3075 258.701 21.2791C259.185 19.1578 260.845 17.9236 262.652 17.9236C263.519 17.9309 264.361 18.217 265.059 18.7413C265.756 19.2656 266.274 20.0013 266.538 20.8436C266.546 20.8704 266.548 20.8987 266.545 20.9265C266.541 20.9543 266.532 20.981 266.517 21.0048C266.503 21.0287 266.484 21.0492 266.461 21.065C266.438 21.0807 266.413 21.0914 266.385 21.0963C263.909 21.5514 261.388 21.6959 258.877 21.5265ZM248.14 14.7497C248.239 14.6489 248.373 14.5922 248.513 14.5922L251.337 14.603C251.477 14.603 251.611 14.6596 251.709 14.7605C251.808 14.8613 251.864 14.9981 251.864 15.1407V22.9648C251.864 29.95 246.518 38.0859 235.266 38.8925C235.128 38.9053 234.99 38.8619 234.883 38.7718C234.776 38.6817 234.709 38.5521 234.695 38.4112L234.431 36.1258C234.421 36.0522 234.426 35.9773 234.446 35.9059C234.466 35.8344 234.5 35.7679 234.546 35.7105C234.593 35.6532 234.65 35.6063 234.715 35.5727C234.78 35.5391 234.851 35.5196 234.924 35.5155C237.382 35.3515 239.771 34.6157 241.908 33.3646C244.371 31.8831 246.002 29.9849 247.032 27.4495C247.058 27.3821 247.058 27.3072 247.033 27.2395C247.008 27.1719 246.958 27.1164 246.895 27.0838C246.848 27.0603 246.795 27.0509 246.743 27.0567C246.691 27.0623 246.641 27.083 246.6 27.1161C244.877 28.455 242.801 29.3988 240.348 29.9903C238.47 30.4447 236.307 30.5576 234.255 30.5576C234.121 30.5573 233.992 30.5071 233.892 30.4165C233.792 30.3258 233.728 30.201 233.712 30.0656L233.422 27.6001C233.415 27.5373 233.387 27.4788 233.344 27.4336C233.3 27.3884 233.244 27.359 233.182 27.35L230.661 26.9709C230.539 26.9524 230.423 26.9046 230.323 26.8312C230.223 26.7578 230.141 26.6611 230.085 26.5491C230.029 26.437 230 26.3129 230 26.1871C230 26.0613 230.03 25.9373 230.087 25.8255C231.9 22.2481 233.101 18.3808 233.638 14.3906C233.646 14.32 233.667 14.2517 233.701 14.1897C233.735 14.1276 233.781 14.073 233.835 14.029C233.89 13.985 233.952 13.9525 234.019 13.9333C234.086 13.9142 234.157 13.9087 234.226 13.9174L236.894 14.2131C236.964 14.2198 237.032 14.2407 237.094 14.2747C237.156 14.3086 237.211 14.3549 237.255 14.4108C237.3 14.4667 237.332 14.531 237.352 14.6C237.371 14.6691 237.377 14.7414 237.369 14.8127C237.072 17.6897 236.39 20.5115 235.34 23.1987C235.325 23.2383 235.319 23.2808 235.322 23.3231C235.325 23.3655 235.337 23.4067 235.357 23.4437C235.378 23.4807 235.406 23.5126 235.44 23.5372C235.474 23.5618 235.512 23.5784 235.553 23.5858L236.773 23.809C236.889 23.8301 236.995 23.8885 237.075 23.9756C237.156 24.0627 237.207 24.174 237.221 24.293L237.463 26.4224C237.467 26.4602 237.479 26.4968 237.497 26.53C237.515 26.5633 237.539 26.5926 237.568 26.6161C237.597 26.6397 237.631 26.657 237.667 26.6672C237.703 26.6773 237.74 26.68 237.777 26.6751C244.142 25.8685 247.978 21.7871 247.986 16.4743V15.13C247.986 14.9873 248.041 14.8506 248.14 14.7497Z" fill="#00DDB4"/>
</svg>
