<?xml version="1.0" encoding="utf-8"?>
<!-- Generator: Adobe Illustrator 24.0.1, SVG Export Plug-In . SVG Version: 6.00 Build 0)  -->
<svg version="1.1" id="Layer_1" xmlns="http://www.w3.org/2000/svg" xmlns:xlink="http://www.w3.org/1999/xlink" x="0px" y="0px"
	 viewBox="0 0 250 59" style="enable-background:new 0 0 250 59;" xml:space="preserve">
<style type="text/css">
	.st0{fill:#FFFFFF;}
</style>
<g>
	<g>
		<path class="st0" d="M33.1,20.5h-8.3v8.8h8.3c0,0,0,0,0,0c2.4,0,4.4-2,4.4-4.4C37.5,22.4,35.6,20.5,33.1,20.5z"/>
		<path class="st0" d="M29.2,0C13.1,0,0,13.1,0,29.2c0,16.1,13.1,29.2,29.2,29.2c16.1,0,29.2-13.1,29.2-29.2
			C58.5,13.1,45.4,0,29.2,0z M33.1,35.1h-8.3v8.8H19V14.6h14.1c5.7,0,10.2,4.6,10.2,10.2C43.4,30.5,38.8,35.1,33.1,35.1z"/>
	</g>
	<path class="st0" d="M89.2,25.7c0-1.6-1.2-2.6-2.8-2.6h-4.3v5.1h4.3C88,28.2,89.2,27.2,89.2,25.7L89.2,25.7z M78,39V19.5h9
		c4.2,0,6.4,2.8,6.4,6.2c0,3.3-2.3,6.1-6.4,6.1h-4.9V39H78L78,39z M95.8,39V24.8h3.6v1.9c1-1.2,2.7-2.2,4.4-2.2V28
		c-0.3-0.1-0.6-0.1-1-0.1c-1.2,0-2.8,0.7-3.4,1.6V39H95.8L95.8,39z M116.2,31.7c0-2.2-1.3-4-3.6-4c-2.3,0-3.5,1.9-3.5,4
		c0,2.2,1.3,4,3.5,4C114.9,35.7,116.2,33.9,116.2,31.7 M105.3,31.7c0-3.9,2.8-7.3,7.3-7.3c4.6,0,7.3,3.3,7.3,7.3s-2.8,7.3-7.3,7.3
		C108,39,105.3,35.6,105.3,31.7 M132.2,34.2v-4.9c-0.6-0.9-1.9-1.6-3.1-1.6c-2.1,0-3.5,1.6-3.5,4c0,2.4,1.4,4,3.5,4
		C130.3,35.7,131.6,35.1,132.2,34.2L132.2,34.2z M132.2,39v-2.1c-1.1,1.4-2.6,2.1-4.3,2.1c-3.5,0-6.1-2.6-6.1-7.3
		c0-4.5,2.6-7.3,6.1-7.3c1.6,0,3.2,0.7,4.3,2.1v-7.1h3.7V39H132.2z M148.9,39v-2.1c-0.9,1-2.6,2.1-4.9,2.1c-3,0-4.5-1.7-4.5-4.4
		v-9.8h3.6v8.4c0,1.9,1,2.6,2.6,2.6c1.4,0,2.5-0.8,3.2-1.6v-9.4h3.6V39H148.9L148.9,39z M155.3,31.7c0-4.2,3.1-7.3,7.4-7.3
		c2.8,0,4.6,1.2,5.5,2.5l-2.4,2.2c-0.7-1-1.7-1.5-2.9-1.5c-2.2,0-3.8,1.6-3.8,4c0,2.4,1.5,4,3.8,4c1.3,0,2.3-0.6,2.9-1.5l2.4,2.2
		c-0.9,1.3-2.6,2.5-5.5,2.5C158.4,39,155.3,36,155.3,31.7 M171.2,35.2V28h-2.3v-3.2h2.3V21h3.6v3.8h2.8V28h-2.8v6.2
		c0,0.9,0.5,1.5,1.3,1.5c0.5,0,1.1-0.2,1.3-0.4l0.8,2.8c-0.5,0.5-1.5,0.9-3,0.9C172.6,39,171.2,37.7,171.2,35.2 M201,39v-8.4h-9V39
		h-4.1V19.5h4.1V27h9v-7.5h4.1V39L201,39z M218.2,39v-2.1c-0.9,1-2.6,2.1-4.9,2.1c-3,0-4.5-1.7-4.5-4.4v-9.8h3.6v8.4
		c0,1.9,1,2.6,2.6,2.6c1.4,0,2.5-0.8,3.2-1.6v-9.4h3.6V39C221.8,39,218.2,39,218.2,39z M234.8,39v-8.7c0-1.9-1-2.6-2.6-2.6
		c-1.4,0-2.5,0.8-3.2,1.6V39h-3.6V24.8h3.6v1.8c0.9-1,2.6-2.1,4.9-2.1c3.1,0,4.5,1.7,4.5,4.4V39L234.8,39L234.8,39z M242.8,35.2V28
		h-2.3v-3.2h2.3V21h3.6v3.8h2.8V28h-2.8v6.2c0,0.9,0.5,1.5,1.3,1.5c0.5,0,1.1-0.2,1.3-0.4l0.8,2.8c-0.5,0.5-1.5,0.9-3,0.9
		C244.2,39,242.9,37.7,242.8,35.2"/>
</g>
</svg>
