<svg width="198" height="67" viewBox="0 0 198 67" fill="none" xmlns="http://www.w3.org/2000/svg">
<path fill-rule="evenodd" clip-rule="evenodd" d="M157.551 30.0064C157.551 39.83 150.72 47.2311 141.684 47.2311C137.601 47.2311 134.684 45.7695 132.578 43.5742C132.51 43.5017 132.423 43.4493 132.327 43.4227C132.231 43.3961 132.13 43.3963 132.034 43.4234C131.939 43.4504 131.852 43.5032 131.784 43.5761C131.717 43.6489 131.67 43.7389 131.65 43.8363L131.3 45.5133C131.249 45.7599 131.115 45.9814 130.919 46.1405C130.724 46.2997 130.479 46.3866 130.227 46.3868H124.341C124.05 46.3868 123.771 46.2714 123.566 46.0661C123.36 45.8608 123.244 45.5824 123.244 45.292V1.09474C123.244 0.804398 123.36 0.525946 123.566 0.320642C123.771 0.115338 124.05 0 124.341 0H130.945C131.235 0 131.514 0.115338 131.72 0.320642C131.926 0.525946 132.041 0.804398 132.041 1.09474V15.6816C132.041 15.7884 132.072 15.893 132.131 15.9822C132.19 16.0715 132.274 16.1413 132.372 16.183C132.471 16.2247 132.579 16.2364 132.684 16.2166C132.79 16.1968 132.886 16.1464 132.963 16.0717C135.034 14.0628 137.846 12.7759 141.649 12.7759C150.72 12.7759 157.551 20.177 157.551 30.0064ZM131.604 30.0064C131.604 35.1715 135.016 39.0206 140.027 39.0206C145.237 39.0206 148.486 35.0026 148.486 30.0064C148.486 25.0102 145.237 20.9864 140.027 20.9864C135.016 20.9864 131.604 24.8355 131.604 30.0064ZM117.925 14.22L116.881 21.1728C116.862 21.2973 116.817 21.4164 116.747 21.5216C116.678 21.6269 116.587 21.7159 116.48 21.7824C116.373 21.8489 116.252 21.8913 116.127 21.9067C116.002 21.9221 115.875 21.9101 115.755 21.8715C114.336 21.4314 112.86 21.2019 111.374 21.1902C107.29 21.1902 104.467 23.6883 104.467 28.5506V45.292C104.467 45.5814 104.352 45.8589 104.148 46.0641C103.943 46.2692 103.666 46.3852 103.376 46.3868H96.7315C96.4416 46.3852 96.1641 46.2692 95.9597 46.0641C95.7553 45.8589 95.6406 45.5814 95.6406 45.292V14.7499C95.6451 14.4636 95.7619 14.1905 95.9658 13.9891C96.1698 13.7877 96.4446 13.6741 96.7315 13.6726H102.565C102.816 13.6741 103.059 13.7617 103.254 13.9207C103.448 14.0797 103.582 14.3004 103.633 14.5461L103.959 16.0776C103.979 16.1772 104.027 16.2693 104.097 16.3432C104.167 16.4171 104.256 16.4698 104.355 16.4953C104.454 16.5208 104.557 16.5181 104.655 16.4875C104.752 16.4569 104.838 16.3995 104.904 16.3221C106.952 13.8997 109.845 12.7933 113.439 12.7933C114.742 12.7763 116.041 12.9369 117.301 13.2708C117.502 13.3267 117.677 13.4537 117.791 13.6283C117.906 13.8029 117.954 14.0131 117.925 14.22ZM179.743 47.2311C189.957 47.2311 197.506 39.8649 197.506 30.0064C197.506 20.1421 189.928 12.7758 179.743 12.7758C169.557 12.7758 162.044 20.1362 162.044 30.0064C162.044 39.8765 169.528 47.2311 179.743 47.2311ZM179.743 39.0205C174.767 39.0205 171.045 35.3054 171.045 30.0064C171.045 24.7015 174.749 20.9864 179.743 20.9864C184.736 20.9864 188.493 24.7074 188.493 30.0064C188.493 35.3054 184.719 39.0205 179.743 39.0205ZM87.8871 33.8615C88.524 33.6914 89.0916 33.3264 89.5101 32.8178C89.9287 32.3092 90.1771 31.6825 90.2205 31.0257C90.3281 28.6634 89.9506 26.3041 89.1111 24.0928C88.2717 21.8815 86.988 19.865 85.339 18.1671C83.6901 16.4693 81.7106 15.1261 79.5225 14.22C77.3343 13.3139 74.9836 12.8642 72.6148 12.8984C62.0503 12.8984 55.2192 21.7786 55.2192 30.3968C55.2192 39.015 61.9511 47.8952 72.749 47.8952C79.9068 47.8952 84.6669 46.4685 86.207 45.927C86.3666 45.872 86.5055 45.7693 86.6046 45.6328C86.7038 45.4964 86.7584 45.3327 86.7612 45.1642L86.837 39.9234C86.8396 39.7978 86.8133 39.6733 86.7602 39.5594C86.707 39.4456 86.6283 39.3454 86.5303 39.2667C86.4322 39.1879 86.3174 39.1327 86.1946 39.1052C86.0718 39.0777 85.9443 39.0787 85.822 39.1081C82.2435 39.9671 78.5815 40.4319 74.9016 40.494C70.8881 40.494 67.2071 39.2421 65.2179 36.4179C65.1705 36.3506 65.1431 36.2713 65.1388 36.1891C65.1346 36.1069 65.1537 36.0253 65.1939 35.9535C65.2341 35.8816 65.2939 35.8226 65.3662 35.7832C65.4386 35.7438 65.5206 35.7256 65.6029 35.7308C72.0431 36.1034 81.126 35.7249 87.8871 33.8615ZM64.3778 28.7256C64.3146 28.7215 64.253 28.7036 64.1975 28.6731C64.142 28.6427 64.0938 28.6003 64.0565 28.5492C64.0192 28.4981 63.9937 28.4394 63.9816 28.3773C63.9696 28.3152 63.9715 28.2512 63.987 28.1898C65.0604 23.5954 68.7355 20.9226 72.7373 20.9226C74.6559 20.9382 76.5206 21.5579 78.0656 22.6935C79.6107 23.829 80.7572 25.4224 81.3418 27.2465C81.3592 27.3047 81.364 27.3659 81.3561 27.4261C81.3481 27.4863 81.3274 27.5442 81.2955 27.5958C81.2635 27.6475 81.221 27.6919 81.1707 27.726C81.1204 27.7601 81.0634 27.7833 81.0035 27.7939C75.5203 28.7796 69.937 29.0925 64.3778 28.7256ZM40.6034 14.0486C40.8222 13.8301 41.119 13.7074 41.4284 13.7074L47.682 13.7307C47.9914 13.7307 48.2882 13.8534 48.507 14.0719C48.7258 14.2903 48.8487 14.5865 48.8487 14.8954V31.8406C48.8487 46.969 37.0124 64.5897 12.0973 66.3366C11.7913 66.3642 11.4868 66.2703 11.2498 66.0751C11.0128 65.88 10.8624 65.5994 10.8314 65.2943L10.2481 60.3446C10.2261 60.1852 10.2374 60.023 10.2813 59.8682C10.3253 59.7133 10.4009 59.5693 10.5034 59.4451C10.6059 59.3209 10.733 59.2193 10.8768 59.1466C11.0207 59.0739 11.178 59.0317 11.339 59.0228C16.7823 58.6675 22.0721 57.074 26.8037 54.3643C32.2581 51.1558 35.869 47.0447 38.15 41.5535C38.2075 41.4075 38.2082 41.2453 38.1521 41.0988C38.096 40.9523 37.987 40.832 37.8466 40.7615C37.7421 40.7107 37.6254 40.6903 37.5099 40.7027C37.3943 40.715 37.2846 40.7597 37.1933 40.8314C33.3781 43.7313 28.7813 45.7752 23.3502 47.0563C19.1909 48.0404 14.4016 48.285 9.85723 48.285C9.56117 48.2843 9.27559 48.1756 9.05425 47.9793C8.83291 47.783 8.6911 47.5127 8.65552 47.2194L8.01383 41.8796C7.99727 41.7436 7.9363 41.6169 7.84034 41.519C7.74438 41.4211 7.61878 41.3575 7.48297 41.338L1.90026 40.517C1.63016 40.477 1.37352 40.3733 1.15168 40.2144C0.929836 40.0555 0.74921 39.846 0.624822 39.6034C0.500434 39.3607 0.43588 39.092 0.436528 38.8194C0.437177 38.5469 0.503008 38.2784 0.628549 38.0363C4.6439 30.2885 7.30338 21.9128 8.49218 13.2707C8.50953 13.1179 8.55704 12.97 8.63195 12.8356C8.70687 12.7012 8.80771 12.583 8.92866 12.4877C9.04961 12.3924 9.18826 12.322 9.33663 12.2804C9.48499 12.2389 9.64012 12.2272 9.79306 12.2459L15.7025 12.8864C15.8576 12.9008 16.0083 12.9462 16.1456 13.0197C16.2829 13.0932 16.4041 13.1935 16.502 13.3145C16.5999 13.4355 16.6724 13.5749 16.7155 13.7244C16.7585 13.8739 16.7711 14.0305 16.7525 14.1849C16.0964 20.4159 14.585 26.5273 12.2607 32.3472C12.2274 32.4329 12.2135 32.525 12.2201 32.6167C12.2266 32.7085 12.2535 32.7976 12.2987 32.8778C12.3438 32.9579 12.4062 33.0271 12.4813 33.0803C12.5565 33.1336 12.6425 33.1696 12.7332 33.1857L15.4341 33.669C15.6901 33.7146 15.9247 33.8411 16.1032 34.0298C16.2818 34.2185 16.3948 34.4595 16.4258 34.7172L16.9625 39.3291C16.9711 39.4109 16.9961 39.4902 17.0359 39.5622C17.0757 39.6343 17.1295 39.6977 17.1941 39.7486C17.2588 39.7996 17.3331 39.8372 17.4125 39.8592C17.4919 39.8811 17.575 39.887 17.6567 39.8764C31.7506 38.1295 40.2442 29.2901 40.2617 17.7836V14.8721C40.2617 14.5632 40.3846 14.267 40.6034 14.0486Z" fill="#00DDB4"/>
</svg>